<svg width="644" height="355" viewBox="0 0 644 355" fill="none" xmlns="http://www.w3.org/2000/svg">
<path d="M88.27 232.26L154.74 167.72H117.17L158.6 126.29H208.69V184.1L175.46 217.33V185.06L112.6 247.92L88.27 232.26Z" fill="#C4261A"/>
<path d="M160.57 290.72L62.23 233.94V120.39L160.57 63.61L258.91 120.39V233.94L160.57 290.72ZM76.69 225.59L160.57 274.02L244.44 225.59V128.74L160.56 80.31L76.69 128.74V225.59Z" fill="white"/>
<path d="M341.67 92.33V100.28H321.86V107.99H338.46V115.88H321.86V134H313.56V92.33H341.67Z" fill="white"/>
<path d="M357.43 111.73C354.92 111.73 353.51 113.19 353.51 117.69V134H345.85V104.83H353.51V106.94C354.32 105.13 356.96 104.19 358.77 104.19C360.87 104.19 363.09 104.95 365.2 106.29L361.46 113.01C358.77 111.84 358.54 111.72 357.43 111.72V111.73Z" fill="white"/>
<path d="M377 116.18L384.95 115.48L384.89 114.08C384.77 112.68 383.02 111.04 379.22 111.04C376.36 111.04 374.13 111.8 371.1 113.84L368.35 108C371.97 105.31 375.66 104.26 378.98 104.26C386.93 104.26 392.36 108.23 392.36 114.49V134.07H384.76L384.82 131.91C382.07 134.07 378.68 134.83 376.46 134.83C370.56 134.83 366.23 131.09 366.23 125.65C366.23 120.21 369.56 116.88 376.99 116.18H377ZM384.89 124.12V122.02L377.29 122.78C374.72 123.13 373.55 124.12 373.55 125.53C373.55 127.11 375.31 127.64 377.58 127.64C380.68 127.64 384.89 125.83 384.89 124.13V124.12Z" fill="white"/>
<path d="M406.32 104.9V106.95C408.25 105.14 411.4 104.2 413.68 104.2C420.05 104.2 424.08 108.35 424.08 116.3V134.01H416.48V117.12C416.48 112.39 414.26 111.51 412.63 111.51C409.18 111.51 406.32 113.38 406.32 120.04V134.01H398.66V104.91H406.32V104.9Z" fill="white"/>
<path d="M444.76 104.25C448.62 104.25 451.48 105.3 454.93 107.82L451.83 114.31C448.55 112.09 447.91 111.56 444.7 111.56C440.49 111.56 437.22 115.01 437.22 119.57C437.22 124.13 440.32 127.46 444.64 127.46C447.62 127.46 449.26 126.7 452.53 124.13L454.98 131.2C450.95 133.89 448.38 134.82 444.75 134.82C436.04 134.82 429.32 128.16 429.32 119.62C429.32 111.08 436.04 104.25 444.75 104.25H444.76Z" fill="white"/>
<path d="M472.62 104.25C480.98 104.25 486.7 110.8 486.7 120.32V122.72H466.19C466.89 125.76 469.4 127.51 473.03 127.51C475.37 127.51 476.65 127.1 478.29 125.52L484.6 129.5C481.56 133.18 477.82 134.82 472.91 134.82C464.5 134.82 458.47 128.51 458.47 119.62C458.47 110.73 464.37 104.25 472.62 104.25ZM478.93 116.29C478.23 113.25 476.24 111.38 472.79 111.38C469.34 111.38 467.12 113.37 466.42 116.29H478.93Z" fill="white"/>
<path d="M368.12 159.51C379.14 159.51 387.95 162.05 397.93 168.45L388.54 187.38C380.93 182.02 374.82 179.93 366.93 179.93C348.3 179.93 333.7 195.43 333.7 214.96C333.7 234.49 348.46 248.79 367.09 248.79C375.13 248.79 380.65 246.56 391.08 239.1L397.34 260.27C387.8 266.23 377.97 269.22 366.94 269.22C336.84 269.22 312.39 244.93 312.39 215.11C312.39 185.29 337.29 159.52 368.14 159.52L368.12 159.51Z" fill="white"/>
<path d="M485.52 160.85V181.12H431.86V200.79H475.98V220.91H431.86V247H485.52V267.12H411.3V160.85H485.52Z" fill="white"/>
<path d="M575.79 160.85V181.12H522.13V200.79H566.25V220.91H522.13V247H575.79V267.12H501.57V160.85H575.79Z" fill="white"/>
</svg>
