<svg width="549" height="243" viewBox="0 0 549 243" fill="none" xmlns="http://www.w3.org/2000/svg">
<path d="M27.8234 180.176L98.8278 111.218H58.6905L102.945 66.9629H156.47V128.722L120.955 164.225V129.745L53.8028 196.898L27.8234 180.176Z" fill="#C7271B"/>
<path d="M105.054 242.63L0 181.969V60.6607L105.054 0L210.108 60.6607V181.969L105.054 242.63ZM15.4462 173.053L105.054 224.784L194.662 173.053V69.5899L105.054 17.8584L15.4462 69.5899V173.053Z" fill="#012650"/>
<path d="M298.516 30.6903V39.1775H277.349V47.4121H295.081V55.8361H277.349V75.1975H268.483V30.6777H298.516V30.6903Z" fill="#012650"/>
<path d="M315.365 51.4157C312.675 51.4157 311.184 52.9818 311.184 57.7811V75.1975H303V44.0399H311.184V46.288C312.056 44.3557 314.872 43.3579 316.804 43.3579C319.053 43.3579 321.427 44.1662 323.675 45.606L319.684 52.7923C316.817 51.542 316.564 51.4157 315.377 51.4157H315.365Z" fill="#012650"/>
<path d="M336.267 56.1645L344.754 55.4193L344.691 53.9164C344.565 52.4135 342.695 50.6705 338.641 50.6705C335.585 50.6705 333.211 51.4788 329.965 53.6638L327.035 47.4247C330.899 44.5577 334.84 43.4337 338.401 43.4337C346.889 43.4337 352.698 47.6773 352.698 54.3584V75.2733H344.577L344.64 72.962C341.71 75.2733 338.086 76.0816 335.711 76.0816C329.409 76.0816 324.786 72.0906 324.786 66.2809C324.786 60.4712 328.348 56.9096 336.28 56.1645H336.267ZM344.691 64.6517V62.4036L336.57 63.2119C333.829 63.5908 332.579 64.6517 332.579 66.142C332.579 67.8217 334.461 68.3901 336.886 68.3901C340.195 68.3901 344.691 66.4577 344.691 64.639V64.6517Z" fill="#012650"/>
<path d="M367.589 44.1157V46.3007C369.647 44.3683 373.019 43.3705 375.457 43.3705C382.264 43.3705 386.571 47.8036 386.571 56.2908V75.2101H378.45V57.1622C378.45 52.1103 376.076 51.1631 374.333 51.1631C370.645 51.1631 367.589 53.1586 367.589 60.2818V75.1975H359.405V44.1031H367.589V44.1157Z" fill="#012650"/>
<path d="M408.648 43.4211C412.765 43.4211 415.834 44.5451 419.509 47.2353L416.2 54.169C412.702 51.7946 412.02 51.2389 408.585 51.2389C404.088 51.2389 400.59 54.9268 400.59 59.7892C400.59 64.6517 403.899 68.2259 408.522 68.2259C411.704 68.2259 413.46 67.4176 416.958 64.6643L419.573 72.2169C415.266 75.0838 412.513 76.0816 408.648 76.0816C399.34 76.0816 392.166 68.9584 392.166 59.8397C392.166 50.7211 399.352 43.4211 408.648 43.4211Z" fill="#012650"/>
<path d="M438.416 43.4211C447.345 43.4211 453.458 50.4179 453.458 60.5975V63.1614H431.546C432.291 66.4072 434.981 68.2764 438.846 68.2764C441.346 68.2764 442.71 67.8344 444.466 66.1546L451.21 70.3982C447.964 74.326 443.973 76.0816 438.719 76.0816C429.727 76.0816 423.298 69.3373 423.298 59.8397C423.298 50.3422 429.601 43.4211 438.416 43.4211ZM445.16 56.2908C444.415 53.0449 442.293 51.0494 438.606 51.0494C434.918 51.0494 432.543 53.1712 431.798 56.2908H445.16Z" fill="#012650"/>
<path d="M326.782 102.453C338.566 102.453 347.962 105.155 358.634 112.001L348.594 132.221C340.473 126.487 333.943 124.264 325.506 124.264C305.602 124.264 290.004 140.822 290.004 161.686C290.004 182.55 305.766 197.832 325.671 197.832C334.259 197.832 340.157 195.445 351.296 187.476L357.977 210.083C347.785 216.461 337.29 219.644 325.494 219.644C293.338 219.644 267.22 193.69 267.22 161.838C267.22 129.985 293.818 102.453 326.769 102.453H326.782Z" fill="#012650"/>
<path d="M452.195 103.892V125.552H394.869V146.568H442.003V168.064H394.869V195.938H452.195V217.434H372.906V103.905H452.195V103.892Z" fill="#012650"/>
<path d="M548.636 103.892V125.552H491.31V146.568H538.444V168.064H491.31V195.938H548.636V217.434H469.346V103.905H548.636V103.892Z" fill="#012650"/>
</svg>
